<svg xmlns="http://www.w3.org/2000/svg" width="186.08" height="35" viewBox="0 0 186.08 35">
    <rect class="svg__rect" x="0" y="0" width="94.37" height="35" fill="#B729E1" />
    <rect class="svg__rect" x="92.37" y="0" width="93.71000000000001" height="35" fill="#9939C1" />
    <path class="svg__text"
        d="M16.67 22L14.22 22L14.22 13.47L16.74 13.47Q17.87 13.47 18.74 13.97Q19.62 14.48 20.10 15.40Q20.58 16.33 20.58 17.52L20.58 17.52L20.58 17.95Q20.58 19.16 20.10 20.08Q19.61 21.00 18.72 21.50Q17.83 22 16.67 22L16.67 22ZM15.70 14.66L15.70 20.82L16.67 20.82Q17.83 20.82 18.46 20.09Q19.08 19.36 19.09 17.99L19.09 17.99L19.09 17.52Q19.09 16.13 18.49 15.40Q17.89 14.66 16.74 14.66L16.74 14.66L15.70 14.66ZM26.61 22L25.13 22L25.13 13.47L26.61 13.47L26.61 22ZM30.99 19.42L30.99 19.42L32.47 19.42Q32.47 20.15 32.95 20.55Q33.43 20.95 34.33 20.95L34.33 20.95Q35.10 20.95 35.49 20.63Q35.88 20.32 35.88 19.80L35.88 19.80Q35.88 19.24 35.48 18.94Q35.09 18.63 34.06 18.32Q33.03 18.01 32.42 17.63L32.42 17.63Q31.25 16.90 31.25 15.72L31.25 15.72Q31.25 14.69 32.09 14.02Q32.93 13.35 34.27 13.35L34.27 13.35Q35.16 13.35 35.86 13.68Q36.56 14.01 36.96 14.61Q37.36 15.22 37.36 15.96L37.36 15.96L35.88 15.96Q35.88 15.29 35.46 14.91Q35.04 14.54 34.26 14.54L34.26 14.54Q33.54 14.54 33.13 14.85Q32.73 15.16 32.73 15.71L32.73 15.71Q32.73 16.18 33.17 16.50Q33.60 16.81 34.60 17.10Q35.59 17.40 36.20 17.78Q36.80 18.16 37.08 18.65Q37.36 19.13 37.36 19.79L37.36 19.79Q37.36 20.86 36.54 21.49Q35.73 22.12 34.33 22.12L34.33 22.12Q33.40 22.12 32.62 21.77Q31.85 21.43 31.42 20.83Q30.99 20.22 30.99 19.42ZM41.38 18.19L41.38 18.19L41.38 17.39Q41.38 16.19 41.81 15.27Q42.24 14.35 43.04 13.85Q43.84 13.35 44.89 13.35L44.89 13.35Q46.30 13.35 47.16 14.12Q48.02 14.89 48.16 16.29L48.16 16.29L46.68 16.29Q46.58 15.37 46.15 14.96Q45.72 14.55 44.89 14.55L44.89 14.55Q43.92 14.55 43.40 15.26Q42.88 15.96 42.87 17.33L42.87 17.33L42.87 18.09Q42.87 19.47 43.36 20.20Q43.86 20.92 44.81 20.92L44.81 20.92Q45.69 20.92 46.13 20.53Q46.57 20.14 46.68 19.22L46.68 19.22L48.16 19.22Q48.03 20.59 47.15 21.35Q46.27 22.12 44.81 22.12L44.81 22.12Q43.80 22.12 43.02 21.63Q42.24 21.15 41.82 20.26Q41.40 19.37 41.38 18.19ZM52.20 18.00L52.20 18.00L52.20 17.52Q52.20 16.28 52.65 15.32Q53.09 14.37 53.89 13.86Q54.70 13.35 55.74 13.35Q56.79 13.35 57.59 13.85Q58.40 14.35 58.84 15.29Q59.28 16.23 59.28 17.48L59.28 17.48L59.28 17.96Q59.28 19.21 58.85 20.16Q58.41 21.10 57.61 21.61Q56.80 22.12 55.75 22.12L55.75 22.12Q54.72 22.12 53.91 21.61Q53.09 21.10 52.65 20.17Q52.21 19.23 52.20 18.00ZM53.69 17.46L53.69 17.96Q53.69 19.36 54.23 20.13Q54.78 20.90 55.75 20.90L55.75 20.90Q56.74 20.90 57.27 20.15Q57.80 19.40 57.80 17.96L57.80 17.96L57.80 17.51Q57.80 16.09 57.26 15.34Q56.73 14.58 55.74 14.58L55.74 14.58Q54.78 14.58 54.24 15.33Q53.70 16.09 53.69 17.46L53.69 17.46ZM65.23 22L63.75 22L63.75 13.47L66.75 13.47Q68.22 13.47 69.03 14.13Q69.83 14.79 69.83 16.05L69.83 16.05Q69.83 16.90 69.42 17.48Q69.00 18.06 68.26 18.37L68.26 18.37L70.18 21.92L70.18 22L68.59 22L66.88 18.71L65.23 18.71L65.23 22ZM65.23 14.66L65.23 17.52L66.75 17.52Q67.50 17.52 67.92 17.15Q68.35 16.77 68.35 16.11L68.35 16.11Q68.35 15.43 67.96 15.05Q67.57 14.68 66.79 14.66L66.79 14.66L65.23 14.66ZM76.68 22L74.22 22L74.22 13.47L76.74 13.47Q77.87 13.47 78.75 13.97Q79.63 14.48 80.11 15.40Q80.59 16.33 80.59 17.52L80.59 17.52L80.59 17.95Q80.59 19.16 80.10 20.08Q79.62 21.00 78.73 21.50Q77.83 22 76.68 22L76.68 22ZM75.71 14.66L75.71 20.82L76.67 20.82Q77.84 20.82 78.46 20.09Q79.09 19.36 79.10 17.99L79.10 17.99L79.10 17.52Q79.10 16.13 78.49 15.40Q77.89 14.66 76.74 14.66L76.74 14.66L75.71 14.66Z"
        fill="#FFFFFF" />
    <path class="svg__text"
        d="M105.97 21.24L105.97 21.24L106.75 19.49Q107.31 19.86 108.06 20.09Q108.80 20.32 109.52 20.32L109.52 20.32Q110.89 20.32 110.89 19.64L110.89 19.64Q110.89 19.28 110.50 19.11Q110.11 18.93 109.25 18.74L109.25 18.74Q108.30 18.53 107.66 18.30Q107.03 18.06 106.57 17.55Q106.12 17.03 106.12 16.16L106.12 16.16Q106.12 15.39 106.54 14.77Q106.96 14.15 107.79 13.79Q108.63 13.43 109.83 13.43L109.83 13.43Q110.66 13.43 111.47 13.62Q112.27 13.80 112.89 14.17L112.89 14.17L112.15 15.93Q110.95 15.28 109.82 15.28L109.82 15.28Q109.11 15.28 108.79 15.49Q108.47 15.70 108.47 16.04L108.47 16.04Q108.47 16.37 108.85 16.54Q109.24 16.71 110.09 16.89L110.09 16.89Q111.05 17.10 111.68 17.33Q112.31 17.56 112.77 18.07Q113.23 18.58 113.23 19.46L113.23 19.46Q113.23 20.21 112.81 20.83Q112.39 21.44 111.55 21.80Q110.71 22.17 109.51 22.17L109.51 22.17Q108.49 22.17 107.53 21.92Q106.57 21.67 105.97 21.24ZM124.55 22L117.81 22L117.81 13.60L124.40 13.60L124.40 15.44L120.16 15.44L120.16 16.85L123.90 16.85L123.90 18.63L120.16 18.63L120.16 20.17L124.55 20.17L124.55 22ZM131.74 22L129.36 22L129.36 13.60L133.20 13.60Q134.34 13.60 135.18 13.98Q136.02 14.35 136.48 15.06Q136.93 15.76 136.93 16.71L136.93 16.71Q136.93 17.62 136.51 18.30Q136.08 18.98 135.29 19.36L135.29 19.36L137.10 22L134.55 22L133.03 19.77L131.74 19.77L131.74 22ZM131.74 15.47L131.74 17.93L133.05 17.93Q133.79 17.93 134.16 17.61Q134.53 17.29 134.53 16.71L134.53 16.71Q134.53 16.12 134.16 15.79Q133.79 15.47 133.05 15.47L133.05 15.47L131.74 15.47ZM144.30 22L140.71 13.60L143.28 13.60L145.56 19.07L147.89 13.60L150.24 13.60L146.64 22L144.30 22ZM161.14 22L154.39 22L154.39 13.60L160.99 13.60L160.99 15.44L156.75 15.44L156.75 16.85L160.48 16.85L160.48 18.63L156.75 18.63L156.75 20.17L161.14 20.17L161.14 22ZM168.32 22L165.94 22L165.94 13.60L169.79 13.60Q170.93 13.60 171.77 13.98Q172.60 14.35 173.06 15.06Q173.52 15.76 173.52 16.71L173.52 16.71Q173.52 17.62 173.09 18.30Q172.66 18.98 171.87 19.36L171.87 19.36L173.68 22L171.14 22L169.62 19.77L168.32 19.77L168.32 22ZM168.32 15.47L168.32 17.93L169.64 17.93Q170.37 17.93 170.74 17.61Q171.12 17.29 171.12 16.71L171.12 16.71Q171.12 16.12 170.74 15.79Q170.37 15.47 169.64 15.47L169.64 15.47L168.32 15.47Z"
        fill="#FFFFFF" x="105.37" />
</svg>